<?xml version="1.0" encoding="UTF-8"?><svg id="Layer_2" xmlns="http://www.w3.org/2000/svg" viewBox="0 0 1000 219.7578"><g id="Components"><g id="c5452f34-a0c4-4d18-9641-51f7d45e223c_5"><path d="M411.1398,129.1638c0,57.1688-30.9594,85.7504-92.8738,85.7504-4.3705,0-9.6849-.3334-15.9534-.9969-6.2674-.668-11.2089-1.3753-14.8134-2.1368v-76.9193c1.1388.383,3.5606.7119,7.2642.9969,3.7036.285,7.3577.428,10.9679.428,9.3042,0,16.0964-2.3734,20.37-7.1223,4.2736-4.7456,6.4093-12.3444,6.4093-22.7918V16.063h78.6292v113.1008Z" style="fill:#fff;"/><path d="M531.9317,219.7578c-15.7664,0-30.2476-2.6133-43.4457-7.8342-13.2027-5.222-24.5975-12.5358-34.1855-21.9369-9.5937-9.401-17.0494-20.512-22.3638-33.3317-5.32-12.8197-7.9773-26.9224-7.9773-42.3058s2.6572-29.4861,7.9773-42.3058c5.3144-12.8197,12.7701-23.9306,22.3638-33.3317,9.588-9.401,20.9828-16.7103,34.1855-21.9369,13.1982-5.2209,27.6793-7.8342,43.4457-7.8342s30.198,2.6133,43.3027,7.8342c13.1047,5.2266,24.5006,12.5358,34.1866,21.9369,9.686,9.401,17.1868,20.512,22.5057,33.3317,5.3155,12.8197,7.9773,26.9224,7.9773,42.3058s-2.6617,29.4861-7.9773,42.3058c-5.3189,12.8197-12.8197,23.9306-22.5057,33.3317-9.686,9.401-21.0819,16.7148-34.1866,21.9369-13.1047,5.2209-27.5408,7.8342-43.3027,7.8342ZM513.8404,96.116c-4.8424,4.9416-7.2631,11.0174-7.2631,18.2332,0,7.2203,2.4207,13.2962,7.2631,18.2332,4.8436,4.9404,10.871,7.4062,18.0913,7.4062,7.2158,0,13.2477-2.4657,18.0902-7.4062,4.8424-4.9371,7.2642-11.0129,7.2642-18.2332,0-7.2158-2.4218-13.2917-7.2642-18.2332-4.8424-4.9359-10.8744-7.4062-18.0902-7.4062-7.2203,0-13.2477,2.4702-18.0913,7.4062Z" style="fill:#fff;"/><path d="M771.2358,129.1638c0,57.1688-30.9594,85.7504-92.8738,85.7504-4.3705,0-9.6849-.3334-15.9534-.9969-6.2674-.668-11.2089-1.3753-14.8134-2.1368v-76.9193c1.1388.383,3.5606.7119,7.2642.9969,3.7036.285,7.3577.428,10.9679.428,9.3042,0,16.0964-2.3734,20.37-7.1223,4.2736-4.7456,6.4093-12.3444,6.4093-22.7918V16.063h78.6292v113.1008Z" style="fill:#fff;"/><path d="M892.0277,219.7578c-15.7664,0-30.2476-2.6133-43.4457-7.8342-13.2027-5.222-24.5975-12.5358-34.1866-21.9369-9.5925-9.401-17.0483-20.512-22.3627-33.3317-5.32-12.8197-7.9773-26.9224-7.9773-42.3058s2.6572-29.4861,7.9773-42.3058c5.3144-12.8197,12.7701-23.9306,22.3627-33.3317,9.5891-9.401,20.9839-16.7103,34.1866-21.9369,13.1982-5.2209,27.6793-7.8342,43.4457-7.8342s30.198,2.6133,43.3027,7.8342c13.1047,5.2266,24.5006,12.5358,34.1866,21.9369,9.686,9.401,17.1868,20.512,22.5057,33.3317,5.3155,12.8197,7.9773,26.9224,7.9773,42.3058s-2.6617,29.4861-7.9773,42.3058c-5.3189,12.8197-12.8197,23.9306-22.5057,33.3317-9.686,9.401-21.0819,16.7148-34.1866,21.9369-13.1047,5.2209-27.5408,7.8342-43.3027,7.8342ZM873.9376,96.116c-4.8436,4.9416-7.2654,11.0174-7.2654,18.2332,0,7.2203,2.4218,13.2962,7.2654,18.2332,4.8424,4.9404,10.8699,7.4062,18.0902,7.4062,7.2158,0,13.2477-2.4657,18.0902-7.4062,4.8436-4.9371,7.2642-11.0129,7.2642-18.2332,0-7.2158-2.4207-13.2917-7.2642-18.2332-4.8424-4.9359-10.8744-7.4062-18.0902-7.4062-7.2203,0-13.2477,2.4702-18.0902,7.4062Z" style="fill:#fff;"/><path d="M251.2036,37.0439h-21.9948l-8.7364-13.1049c-3.2208-4.8306-8.6423-7.7323-14.4482-7.7323h-32.0725l-8.8919-12.1253c-1.8814-2.5656-4.8727-4.0813-8.0542-4.0813-5.5162,0-9.9879,4.4716-9.9879,9.9879v6.2188h-55.5658l.0294.0469C40.7928,17.2438,0,58.6144,0,109.5397v99.4696c0,2.2053,1.7876,3.9929,3.9929,3.9929h84.7098v-50.9353c0-2.5572,2.073-4.6305,4.6305-4.6305s4.6305,2.0733,4.6305,4.6305v50.9353h84.7098c2.2053,0,3.9929-1.7876,3.9929-3.9929v-92.8493l61.0065-38.1291c5.077-3.1731,8.1613-8.7378,8.1613-14.7249v-21.6316c0-2.5574-2.073-4.6305-4.6305-4.6305ZM205.4776,53.8294c-3.5164,0-6.3669-3.8872-6.3669-8.6822s2.8505-8.6822,6.3669-8.6822,6.3669,3.8872,6.3669,8.6822-2.8505,8.6822-6.3669,8.6822Z" style="fill:#fff;"/></g></g></svg>